<?xml version="1.0" standalone="no"?>
<!DOCTYPE svg PUBLIC "-//W3C//DTD SVG 20010904//EN"
 "http://www.w3.org/TR/2001/REC-SVG-20010904/DTD/svg10.dtd">
<svg version="1.0" xmlns="http://www.w3.org/2000/svg"
 width="1024.000000pt" height="1024.000000pt" viewBox="0 0 1024.000000 1024.000000"
 preserveAspectRatio="xMidYMid meet">

<g transform="translate(0.000000,1024.000000) scale(0.100000,-0.100000)"
fill="#000000" stroke="none">
<path d="M4690 8825 l0 -145 -57 0 c-128 -1 -213 -87 -213 -217 l0 -33 -102
-2 c-57 -1 -120 -2 -140 -3 l-37 0 -3 -81 -3 -81 133 -7 c72 -4 137 -4 142 -1
6 4 10 -29 10 -90 l0 -97 -142 3 -143 4 0 -83 0 -83 143 -1 142 -1 0 -94 0
-93 -145 0 -145 0 0 -80 0 -79 147 -3 146 -3 4 -50 c6 -68 38 -131 82 -160 45
-30 146 -47 231 -39 43 4 62 3 55 -3 -10 -11 -246 -149 -1496 -880 -83 -48
-130 -82 -137 -99 -9 -18 -12 -321 -12 -1152 0 -1006 2 -1130 16 -1150 38 -54
-11 -52 1098 -52 628 0 1027 4 1031 9 8 15 15 142 9 168 l-6 23 -974 0 -974 0
0 95 0 95 918 0 917 0 -3 70 c-3 53 0 77 12 95 l16 25 -187 2 c-181 3 -188 4
-187 23 1 11 2 170 2 353 l2 332 145 0 145 0 0 -120 0 -120 101 0 100 0 -2
122 -1 121 151 -1 c84 -1 156 -4 161 -7 5 -3 8 -64 7 -135 -1 -72 -1 -130 1
-130 2 0 17 7 34 16 17 9 58 21 92 28 l61 13 3 176 c2 173 2 176 -22 204 l-24
28 -231 3 -231 3 0 429 0 428 -31 26 -31 26 -525 0 -525 0 -29 -29 -29 -29 0
-426 0 -426 -231 0 -231 0 -29 -29 -29 -30 0 -423 1 -423 -143 0 -143 0 -3
831 c-2 776 -1 832 15 838 9 4 112 62 227 130 697 408 1379 806 1458 850 l68
38 242 -140 c322 -185 831 -481 836 -486 2 -2 -7 -21 -21 -43 -52 -83 -71
-151 -71 -258 0 -86 4 -109 28 -170 52 -129 127 -208 247 -264 61 -29 186 -56
225 -49 14 2 40 -33 111 -147 50 -82 92 -157 92 -165 0 -11 -227 -286 -304
-368 -1 -1 -36 9 -78 23 -117 39 -216 32 -325 -24 -77 -39 -148 -145 -159
-238 l-5 -50 -100 -6 c-139 -7 -159 -20 -323 -200 -145 -160 -162 -190 -152
-275 6 -52 20 -69 67 -76 34 -5 38 -2 143 117 59 67 129 146 155 174 l47 53
105 1 105 1 123 -119 122 -119 0 -95 0 -95 -165 -164 c-179 -178 -189 -194
-140 -240 33 -31 110 -38 168 -16 30 11 86 58 189 158 165 160 168 166 168
299 l0 76 50 6 c102 12 201 79 244 166 30 60 36 88 38 169 l1 67 105 70 c151
100 439 302 510 357 130 101 172 260 111 423 -19 51 -38 72 -257 272 -131 119
-240 219 -245 223 -4 3 2 33 14 66 29 81 32 226 5 307 -46 142 -174 265 -319
308 -58 17 -89 20 -162 17 -50 -3 -107 -13 -129 -22 l-39 -16 -81 48 c-45 27
-258 151 -475 278 l-393 229 128 5 c136 6 167 15 211 62 28 30 43 70 52 133
l6 50 138 3 137 3 0 79 0 79 -137 3 -138 3 -3 93 -3 92 141 0 140 0 0 83 0 82
-101 0 c-56 0 -119 1 -140 3 l-39 4 0 89 0 89 140 0 140 0 0 80 0 80 -79 0
c-43 0 -106 3 -140 6 l-61 7 0 43 c0 122 -101 214 -222 202 l-38 -4 0 148 0
148 -85 0 -85 0 0 -145 0 -145 -90 0 -90 0 -1 138 c-1 75 -1 140 0 145 0 4
-37 7 -84 7 l-85 0 0 -145 0 -145 -90 0 -90 0 0 145 0 145 -85 0 -85 0 0 -145z
m926 -340 l24 -15 0 -468 c0 -392 -2 -471 -14 -488 -15 -20 -25 -21 -491 -28
-426 -6 -479 -5 -501 9 l-24 15 0 478 c0 262 4 483 8 489 6 9 74 13 262 15
140 2 358 4 484 6 193 2 233 0 252 -13z m1058 -1905 c111 -42 180 -143 180
-265 1 -151 -105 -269 -254 -282 -113 -11 -221 52 -278 162 -22 41 -26 63 -26
120 1 84 20 130 76 191 84 91 188 116 302 74z m-1929 -660 l95 0 0 125 0 125
145 0 145 0 0 -355 0 -355 -385 0 -385 0 0 355 0 354 143 3 142 3 3 -127 3
-128 94 0z m-587 -777 l3 -123 94 0 95 0 0 120 0 120 140 0 c77 0 143 -1 148
-2 4 -2 7 -162 7 -355 l0 -353 -402 0 -403 0 -1 340 c-1 187 -2 346 -3 353 -1
6 -1 15 2 20 2 4 74 6 160 5 l157 -3 3 -122z"/>
<path d="M4793 8326 l-28 -24 0 -306 0 -306 28 -27 27 -28 300 0 300 0 27 28
28 27 3 287 c2 204 -1 295 -9 315 -24 58 -27 58 -351 58 l-297 0 -28 -24z"/>
<path d="M6503 6430 c-51 -31 -66 -62 -61 -125 6 -67 39 -108 100 -123 159
-41 242 179 96 254 -38 20 -97 17 -135 -6z"/>
<path d="M6983 4667 l-82 -62 -1 -198 c0 -109 -4 -206 -10 -216 -5 -10 -62
-63 -127 -117 l-118 -99 123 -3 c142 -3 188 7 239 51 67 59 77 97 79 307 2
207 -5 400 -15 399 -3 0 -43 -28 -88 -62z"/>
<path d="M4043 3469 c-65 -19 -115 -117 -93 -183 18 -55 62 -89 123 -94 95 -8
157 47 157 138 0 102 -90 169 -187 139z"/>
<path d="M1135 3421 c3 -11 42 -154 85 -318 44 -164 116 -433 161 -598 45
-165 84 -310 86 -322 5 -21 10 -21 159 -22 152 -2 154 -1 164 21 5 13 60 204
122 425 62 222 115 403 118 403 3 0 60 -190 126 -423 l121 -422 152 0 152 0
14 50 c8 28 48 176 90 330 89 325 233 852 241 878 5 16 -6 17 -130 17 l-135 0
-14 -47 c-8 -27 -63 -243 -122 -481 l-109 -433 -22 83 c-128 480 -226 846
-230 861 -5 15 -20 17 -132 17 l-127 0 -84 -318 c-46 -174 -105 -393 -130
-487 l-45 -169 -121 484 -121 485 -138 3 c-133 2 -137 2 -131 -17z"/>
<path d="M3257 3109 c-77 -18 -152 -62 -218 -128 -96 -97 -139 -199 -139 -337
0 -214 87 -367 256 -451 219 -108 495 -38 605 153 17 30 29 57 27 59 -2 2 -53
9 -113 16 l-110 11 -47 -45 c-55 -53 -117 -72 -187 -56 -106 24 -158 80 -185
202 l-6 27 330 0 330 0 0 78 c-1 246 -114 415 -315 467 -64 16 -167 18 -228 4z
m194 -206 c57 -29 90 -74 104 -140 l7 -33 -206 0 c-205 0 -206 0 -206 22 0 39
40 105 79 132 76 53 143 58 222 19z"/>
<path d="M4682 3109 c-65 -13 -141 -51 -193 -97 -57 -50 -113 -155 -130 -240
-14 -76 -7 -225 15 -298 51 -166 209 -284 381 -284 101 0 210 48 266 117 l22
28 -5 -86 c-4 -53 -13 -102 -25 -130 -63 -143 -255 -174 -373 -61 l-45 44
-115 -2 c-63 0 -116 -3 -118 -5 -7 -6 35 -90 67 -133 128 -173 462 -211 666
-74 69 47 117 105 147 180 23 56 23 63 26 540 l3 482 -116 0 -115 0 0 -60 0
-60 -41 41 c-77 77 -213 119 -317 98z m213 -218 c91 -42 138 -124 138 -241 1
-145 -71 -242 -194 -265 -96 -18 -201 59 -232 171 -22 79 -21 141 3 207 46
122 174 180 285 128z"/>
<path d="M5731 3104 c-210 -56 -341 -239 -341 -474 0 -251 138 -430 368 -479
198 -42 421 55 493 214 10 22 17 40 16 42 -1 1 -51 7 -111 14 l-108 12 -34
-37 c-106 -115 -302 -82 -365 62 -11 24 -19 57 -19 73 l0 29 325 0 325 0 0 83
c-1 242 -114 409 -315 461 -73 20 -162 19 -234 0z m170 -185 c75 -26 119 -77
136 -160 l6 -29 -207 0 c-232 0 -223 -3 -187 75 45 98 154 147 252 114z"/>
<path d="M6843 3106 c-60 -20 -107 -51 -153 -103 l-40 -46 0 67 0 66 -115 0
-115 0 0 -462 0 -463 115 3 115 3 0 259 c0 286 7 339 51 400 36 50 80 70 151
70 67 0 110 -28 143 -94 25 -50 25 -51 25 -347 l0 -297 115 0 115 -1 0 343 c0
321 -1 346 -21 404 -25 75 -89 146 -161 180 -61 28 -168 37 -225 18z"/>
<path d="M7679 3096 c-149 -52 -246 -157 -293 -315 -21 -70 -21 -227 -1 -306
62 -237 323 -384 570 -320 157 41 257 142 309 313 l7 22 -124 0 c-122 0 -125
0 -131 -23 -10 -43 -71 -94 -127 -107 -119 -29 -230 36 -264 154 -26 88 -17
198 21 273 52 101 166 148 269 109 44 -17 95 -66 95 -90 0 -10 30 -15 108 -20
131 -7 148 -5 144 20 -9 44 -61 132 -107 180 -119 122 -315 167 -476 110z"/>
<path d="M8671 3104 c-152 -41 -279 -168 -325 -323 -18 -62 -21 -222 -5 -290
56 -246 311 -396 567 -336 126 30 230 104 276 198 14 28 25 52 23 53 -1 2 -52
8 -113 14 l-109 12 -45 -45 c-69 -69 -160 -82 -252 -36 -64 32 -118 118 -118
188 l0 21 325 0 325 0 0 78 c-1 187 -58 317 -179 403 -102 73 -244 97 -370 63z
m164 -185 c77 -21 128 -80 142 -162 l5 -32 -207 3 -206 3 6 32 c16 73 69 131
142 154 49 15 69 15 118 2z"/>
<path d="M3970 2634 l0 -464 120 0 120 0 0 460 0 460 -62 1 c-35 0 -89 2 -120
3 l-58 3 0 -463z"/>
</g>
</svg>
